<svg id="Layer_1" data-name="Layer 1" xmlns="http://www.w3.org/2000/svg" viewBox="0 0 67.89 63.31"><defs><style>.cls-1{fill:#730909;fill-rule:evenodd;}</style></defs><path class="cls-1" d="M-3.41-132c-.4-.1-.7.3-.4.6,3.3,3.8,3.6,7.1,3,9-2.6,7.9-30.6-1.4-32.8-1.7-8.7-1.4-12.1,2.9-12.3,10.5a81.33,81.33,0,0,0,1.4,18.8.61.61,0,0,0,.9.4,14.84,14.84,0,0,1,9-2.8,14.85,14.85,0,0,1,9.9,3.5c3.4,3.7,2.3,7.6-.5,10.2a14.75,14.75,0,0,1-14.3,2.4c-.4-.1-.7.1-.4.6A15.37,15.37,0,0,0-26-71.7c15.9-.1,35.1-24.7,34.9-43-.1-7.6-3.4-14.3-12.3-17.3m-55.4-1.6a1.05,1.05,0,0,1,0-1.2c.3-.3.8-.3,1.2.2a13.93,13.93,0,0,0,7.3,3c5,.5,8.5,0,15.4-1.4s8.9-1.8,12.4-1.8,8.4.1,10.3,2.3,2,5.4-1,6.8-7.3.6-10.5-.2a52.47,52.47,0,0,0-13.5-1.8c-5.3.2-10.2.9-14.2-.6a16,16,0,0,1-5.6-3.4c-.9-.9-1.8-1.9-1.8-1.9m19.2,40.7c-3.3,0-6,1.8-6,4.2s2.7,4.2,6,4.2,6-1.9,6-4.2-2.7-4.2-6-4.2" transform="translate(58.99 135)"/></svg>